<mxfile host="app.diagrams.net" agent="Mozilla/5.0 (Windows NT 10.0; Win64; x64) AppleWebKit/537.36 (KHTML, like Gecko) Chrome/129.0.0.0 Safari/537.36" version="24.7.16">
  <diagram id="C5RBs43oDa-KdzZeNtuy" name="Page-1">
    <mxGraphModel dx="2074" dy="1145" grid="1" gridSize="10" guides="1" tooltips="1" connect="1" arrows="1" fold="1" page="1" pageScale="1" pageWidth="827" pageHeight="1169" math="0" shadow="0">
      <root>
        <mxCell id="WIyWlLk6GJQsqaUBKTNV-0" />
        <mxCell id="WIyWlLk6GJQsqaUBKTNV-1" parent="WIyWlLk6GJQsqaUBKTNV-0" />
        <mxCell id="2MG4cEO34_QD30TGhG2z-0" value="Customer" style="swimlane;fontStyle=1;align=center;verticalAlign=top;childLayout=stackLayout;horizontal=1;startSize=26;horizontalStack=0;resizeParent=1;resizeParentMax=0;resizeLast=0;collapsible=1;marginBottom=0;whiteSpace=wrap;html=1;" vertex="1" parent="WIyWlLk6GJQsqaUBKTNV-1">
          <mxGeometry x="40" y="100" width="160" height="270" as="geometry" />
        </mxCell>
        <mxCell id="2MG4cEO34_QD30TGhG2z-1" value="customerID: int&lt;div&gt;&lt;span style=&quot;text-wrap: nowrap;&quot;&gt;name: string&lt;/span&gt;&lt;br&gt;&lt;/div&gt;&lt;div&gt;email: string&lt;/div&gt;&lt;div&gt;password; string&lt;/div&gt;&lt;div&gt;address: string&lt;/div&gt;&lt;div&gt;orderHistory: string[]&lt;/div&gt;&lt;div&gt;paymentInfo: string&lt;/div&gt;" style="text;strokeColor=none;fillColor=none;align=left;verticalAlign=top;spacingLeft=4;spacingRight=4;overflow=hidden;rotatable=0;points=[[0,0.5],[1,0.5]];portConstraint=eastwest;whiteSpace=wrap;html=1;" vertex="1" parent="2MG4cEO34_QD30TGhG2z-0">
          <mxGeometry y="26" width="160" height="94" as="geometry" />
        </mxCell>
        <mxCell id="2MG4cEO34_QD30TGhG2z-2" value="" style="line;strokeWidth=1;fillColor=none;align=left;verticalAlign=middle;spacingTop=-1;spacingLeft=3;spacingRight=3;rotatable=0;labelPosition=right;points=[];portConstraint=eastwest;strokeColor=inherit;" vertex="1" parent="2MG4cEO34_QD30TGhG2z-0">
          <mxGeometry y="120" width="160" height="8" as="geometry" />
        </mxCell>
        <mxCell id="2MG4cEO34_QD30TGhG2z-3" value="register()&lt;div&gt;login()&lt;/div&gt;&lt;div&gt;updateProfile()&lt;/div&gt;&lt;div&gt;viewOrderHistory()&lt;/div&gt;&lt;div&gt;trackOrder()&lt;/div&gt;&lt;div&gt;addTOCart()&lt;/div&gt;&lt;div&gt;makePayemnet()&lt;/div&gt;&lt;div&gt;requestReturn()&lt;/div&gt;&lt;div&gt;contactSupport()&lt;/div&gt;" style="text;strokeColor=none;fillColor=none;align=left;verticalAlign=top;spacingLeft=4;spacingRight=4;overflow=hidden;rotatable=0;points=[[0,0.5],[1,0.5]];portConstraint=eastwest;whiteSpace=wrap;html=1;" vertex="1" parent="2MG4cEO34_QD30TGhG2z-0">
          <mxGeometry y="128" width="160" height="142" as="geometry" />
        </mxCell>
        <mxCell id="2MG4cEO34_QD30TGhG2z-4" value="Seller" style="swimlane;fontStyle=1;align=center;verticalAlign=top;childLayout=stackLayout;horizontal=1;startSize=26;horizontalStack=0;resizeParent=1;resizeParentMax=0;resizeLast=0;collapsible=1;marginBottom=0;whiteSpace=wrap;html=1;" vertex="1" parent="WIyWlLk6GJQsqaUBKTNV-1">
          <mxGeometry x="640" y="680" width="160" height="210" as="geometry" />
        </mxCell>
        <mxCell id="2MG4cEO34_QD30TGhG2z-5" value="sellerID: int&lt;div&gt;&lt;span style=&quot;text-wrap: nowrap;&quot;&gt;name: string&lt;/span&gt;&lt;br&gt;&lt;/div&gt;&lt;div&gt;Inventory: string[]&lt;/div&gt;&lt;div&gt;productList: string[]&lt;/div&gt;&lt;div&gt;orderList: string[]&lt;/div&gt;" style="text;strokeColor=none;fillColor=none;align=left;verticalAlign=top;spacingLeft=4;spacingRight=4;overflow=hidden;rotatable=0;points=[[0,0.5],[1,0.5]];portConstraint=eastwest;whiteSpace=wrap;html=1;" vertex="1" parent="2MG4cEO34_QD30TGhG2z-4">
          <mxGeometry y="26" width="160" height="64" as="geometry" />
        </mxCell>
        <mxCell id="2MG4cEO34_QD30TGhG2z-6" value="" style="line;strokeWidth=1;fillColor=none;align=left;verticalAlign=middle;spacingTop=-1;spacingLeft=3;spacingRight=3;rotatable=0;labelPosition=right;points=[];portConstraint=eastwest;strokeColor=inherit;" vertex="1" parent="2MG4cEO34_QD30TGhG2z-4">
          <mxGeometry y="90" width="160" height="30" as="geometry" />
        </mxCell>
        <mxCell id="2MG4cEO34_QD30TGhG2z-7" value="listProduct()&lt;div&gt;manageInventory()&lt;/div&gt;&lt;div&gt;processOrder()&lt;/div&gt;&lt;div&gt;handleReturn()&lt;/div&gt;&lt;div&gt;contactCustomerService()&lt;/div&gt;" style="text;strokeColor=none;fillColor=none;align=left;verticalAlign=top;spacingLeft=4;spacingRight=4;overflow=hidden;rotatable=0;points=[[0,0.5],[1,0.5]];portConstraint=eastwest;whiteSpace=wrap;html=1;" vertex="1" parent="2MG4cEO34_QD30TGhG2z-4">
          <mxGeometry y="120" width="160" height="90" as="geometry" />
        </mxCell>
        <mxCell id="2MG4cEO34_QD30TGhG2z-8" value="Admin" style="swimlane;fontStyle=1;align=center;verticalAlign=top;childLayout=stackLayout;horizontal=1;startSize=26;horizontalStack=0;resizeParent=1;resizeParentMax=0;resizeLast=0;collapsible=1;marginBottom=0;whiteSpace=wrap;html=1;" vertex="1" parent="WIyWlLk6GJQsqaUBKTNV-1">
          <mxGeometry x="470" y="470" width="160" height="140" as="geometry" />
        </mxCell>
        <mxCell id="2MG4cEO34_QD30TGhG2z-9" value="adminID: int&lt;div&gt;&lt;span style=&quot;text-wrap: nowrap;&quot;&gt;name: string&lt;/span&gt;&lt;br&gt;&lt;/div&gt;" style="text;strokeColor=none;fillColor=none;align=left;verticalAlign=top;spacingLeft=4;spacingRight=4;overflow=hidden;rotatable=0;points=[[0,0.5],[1,0.5]];portConstraint=eastwest;whiteSpace=wrap;html=1;" vertex="1" parent="2MG4cEO34_QD30TGhG2z-8">
          <mxGeometry y="26" width="160" height="34" as="geometry" />
        </mxCell>
        <mxCell id="2MG4cEO34_QD30TGhG2z-10" value="" style="line;strokeWidth=1;fillColor=none;align=left;verticalAlign=middle;spacingTop=-1;spacingLeft=3;spacingRight=3;rotatable=0;labelPosition=right;points=[];portConstraint=eastwest;strokeColor=inherit;" vertex="1" parent="2MG4cEO34_QD30TGhG2z-8">
          <mxGeometry y="60" width="160" height="8" as="geometry" />
        </mxCell>
        <mxCell id="2MG4cEO34_QD30TGhG2z-11" value="manageUsers()&lt;div&gt;monitorSales()&lt;/div&gt;&lt;div&gt;resolveDispute()&lt;/div&gt;&lt;div&gt;viewPlatformMetrics()&lt;/div&gt;" style="text;strokeColor=none;fillColor=none;align=left;verticalAlign=top;spacingLeft=4;spacingRight=4;overflow=hidden;rotatable=0;points=[[0,0.5],[1,0.5]];portConstraint=eastwest;whiteSpace=wrap;html=1;" vertex="1" parent="2MG4cEO34_QD30TGhG2z-8">
          <mxGeometry y="68" width="160" height="72" as="geometry" />
        </mxCell>
        <mxCell id="2MG4cEO34_QD30TGhG2z-12" value="DeliveryPartner" style="swimlane;fontStyle=1;align=center;verticalAlign=top;childLayout=stackLayout;horizontal=1;startSize=26;horizontalStack=0;resizeParent=1;resizeParentMax=0;resizeLast=0;collapsible=1;marginBottom=0;whiteSpace=wrap;html=1;" vertex="1" parent="WIyWlLk6GJQsqaUBKTNV-1">
          <mxGeometry x="640" y="320" width="160" height="140" as="geometry" />
        </mxCell>
        <mxCell id="2MG4cEO34_QD30TGhG2z-13" value="partnerID: int&lt;div&gt;&lt;span style=&quot;text-wrap: nowrap;&quot;&gt;name: string&lt;/span&gt;&lt;br&gt;&lt;div&gt;shipmentDetails: string&lt;/div&gt;&lt;/div&gt;" style="text;strokeColor=none;fillColor=none;align=left;verticalAlign=top;spacingLeft=4;spacingRight=4;overflow=hidden;rotatable=0;points=[[0,0.5],[1,0.5]];portConstraint=eastwest;whiteSpace=wrap;html=1;" vertex="1" parent="2MG4cEO34_QD30TGhG2z-12">
          <mxGeometry y="26" width="160" height="54" as="geometry" />
        </mxCell>
        <mxCell id="2MG4cEO34_QD30TGhG2z-14" value="" style="line;strokeWidth=1;fillColor=none;align=left;verticalAlign=middle;spacingTop=-1;spacingLeft=3;spacingRight=3;rotatable=0;labelPosition=right;points=[];portConstraint=eastwest;strokeColor=inherit;" vertex="1" parent="2MG4cEO34_QD30TGhG2z-12">
          <mxGeometry y="80" width="160" height="8" as="geometry" />
        </mxCell>
        <mxCell id="2MG4cEO34_QD30TGhG2z-15" value="trackShipment()&lt;div&gt;updateDeliveryStatus()&lt;/div&gt;" style="text;strokeColor=none;fillColor=none;align=left;verticalAlign=top;spacingLeft=4;spacingRight=4;overflow=hidden;rotatable=0;points=[[0,0.5],[1,0.5]];portConstraint=eastwest;whiteSpace=wrap;html=1;" vertex="1" parent="2MG4cEO34_QD30TGhG2z-12">
          <mxGeometry y="88" width="160" height="52" as="geometry" />
        </mxCell>
        <mxCell id="2MG4cEO34_QD30TGhG2z-16" value="CustomerSupportAgent" style="swimlane;fontStyle=1;align=center;verticalAlign=top;childLayout=stackLayout;horizontal=1;startSize=26;horizontalStack=0;resizeParent=1;resizeParentMax=0;resizeLast=0;collapsible=1;marginBottom=0;whiteSpace=wrap;html=1;" vertex="1" parent="WIyWlLk6GJQsqaUBKTNV-1">
          <mxGeometry x="380" y="790" width="160" height="130" as="geometry" />
        </mxCell>
        <mxCell id="2MG4cEO34_QD30TGhG2z-17" value="agentID: int&lt;div&gt;&lt;span style=&quot;text-wrap: nowrap;&quot;&gt;name: string&lt;/span&gt;&lt;br&gt;&lt;div&gt;assignedTickets: int[]&lt;/div&gt;&lt;/div&gt;" style="text;strokeColor=none;fillColor=none;align=left;verticalAlign=top;spacingLeft=4;spacingRight=4;overflow=hidden;rotatable=0;points=[[0,0.5],[1,0.5]];portConstraint=eastwest;whiteSpace=wrap;html=1;" vertex="1" parent="2MG4cEO34_QD30TGhG2z-16">
          <mxGeometry y="26" width="160" height="44" as="geometry" />
        </mxCell>
        <mxCell id="2MG4cEO34_QD30TGhG2z-18" value="" style="line;strokeWidth=1;fillColor=none;align=left;verticalAlign=middle;spacingTop=-1;spacingLeft=3;spacingRight=3;rotatable=0;labelPosition=right;points=[];portConstraint=eastwest;strokeColor=inherit;" vertex="1" parent="2MG4cEO34_QD30TGhG2z-16">
          <mxGeometry y="70" width="160" height="8" as="geometry" />
        </mxCell>
        <mxCell id="2MG4cEO34_QD30TGhG2z-19" value="assistCustomer()&lt;div&gt;processReturns()&lt;/div&gt;&lt;div&gt;issueRefund()&lt;/div&gt;" style="text;strokeColor=none;fillColor=none;align=left;verticalAlign=top;spacingLeft=4;spacingRight=4;overflow=hidden;rotatable=0;points=[[0,0.5],[1,0.5]];portConstraint=eastwest;whiteSpace=wrap;html=1;" vertex="1" parent="2MG4cEO34_QD30TGhG2z-16">
          <mxGeometry y="78" width="160" height="52" as="geometry" />
        </mxCell>
        <mxCell id="2MG4cEO34_QD30TGhG2z-20" value="PaymentGateway" style="swimlane;fontStyle=1;align=center;verticalAlign=top;childLayout=stackLayout;horizontal=1;startSize=26;horizontalStack=0;resizeParent=1;resizeParentMax=0;resizeLast=0;collapsible=1;marginBottom=0;whiteSpace=wrap;html=1;" vertex="1" parent="WIyWlLk6GJQsqaUBKTNV-1">
          <mxGeometry x="130" y="800" width="190" height="150" as="geometry" />
        </mxCell>
        <mxCell id="2MG4cEO34_QD30TGhG2z-21" value="paymentOptions: string[]&lt;div&gt;transactionID: id&lt;/div&gt;&lt;div&gt;amount: float&lt;/div&gt;" style="text;strokeColor=none;fillColor=none;align=left;verticalAlign=top;spacingLeft=4;spacingRight=4;overflow=hidden;rotatable=0;points=[[0,0.5],[1,0.5]];portConstraint=eastwest;whiteSpace=wrap;html=1;" vertex="1" parent="2MG4cEO34_QD30TGhG2z-20">
          <mxGeometry y="26" width="190" height="54" as="geometry" />
        </mxCell>
        <mxCell id="2MG4cEO34_QD30TGhG2z-22" value="" style="line;strokeWidth=1;fillColor=none;align=left;verticalAlign=middle;spacingTop=-1;spacingLeft=3;spacingRight=3;rotatable=0;labelPosition=right;points=[];portConstraint=eastwest;strokeColor=inherit;" vertex="1" parent="2MG4cEO34_QD30TGhG2z-20">
          <mxGeometry y="80" width="190" height="8" as="geometry" />
        </mxCell>
        <mxCell id="2MG4cEO34_QD30TGhG2z-23" value="processPayment()&lt;div&gt;refundPayment()&lt;/div&gt;&lt;div&gt;handleMultiplePaymentOptions()&lt;/div&gt;" style="text;strokeColor=none;fillColor=none;align=left;verticalAlign=top;spacingLeft=4;spacingRight=4;overflow=hidden;rotatable=0;points=[[0,0.5],[1,0.5]];portConstraint=eastwest;whiteSpace=wrap;html=1;" vertex="1" parent="2MG4cEO34_QD30TGhG2z-20">
          <mxGeometry y="88" width="190" height="62" as="geometry" />
        </mxCell>
        <mxCell id="2MG4cEO34_QD30TGhG2z-24" value="ShoppingCart" style="swimlane;fontStyle=1;align=center;verticalAlign=top;childLayout=stackLayout;horizontal=1;startSize=26;horizontalStack=0;resizeParent=1;resizeParentMax=0;resizeLast=0;collapsible=1;marginBottom=0;whiteSpace=wrap;html=1;" vertex="1" parent="WIyWlLk6GJQsqaUBKTNV-1">
          <mxGeometry x="330" y="90" width="160" height="150" as="geometry" />
        </mxCell>
        <mxCell id="2MG4cEO34_QD30TGhG2z-25" value="cartID: int&lt;div&gt;items: string[]&lt;/div&gt;&lt;div&gt;totalPrice: float&lt;/div&gt;" style="text;strokeColor=none;fillColor=none;align=left;verticalAlign=top;spacingLeft=4;spacingRight=4;overflow=hidden;rotatable=0;points=[[0,0.5],[1,0.5]];portConstraint=eastwest;whiteSpace=wrap;html=1;" vertex="1" parent="2MG4cEO34_QD30TGhG2z-24">
          <mxGeometry y="26" width="160" height="54" as="geometry" />
        </mxCell>
        <mxCell id="2MG4cEO34_QD30TGhG2z-26" value="" style="line;strokeWidth=1;fillColor=none;align=left;verticalAlign=middle;spacingTop=-1;spacingLeft=3;spacingRight=3;rotatable=0;labelPosition=right;points=[];portConstraint=eastwest;strokeColor=inherit;" vertex="1" parent="2MG4cEO34_QD30TGhG2z-24">
          <mxGeometry y="80" width="160" height="8" as="geometry" />
        </mxCell>
        <mxCell id="2MG4cEO34_QD30TGhG2z-27" value="addItem()&lt;div&gt;removeItem()&lt;/div&gt;&lt;div&gt;calculateTotal()&lt;/div&gt;&lt;div&gt;checkout()&lt;/div&gt;" style="text;strokeColor=none;fillColor=none;align=left;verticalAlign=top;spacingLeft=4;spacingRight=4;overflow=hidden;rotatable=0;points=[[0,0.5],[1,0.5]];portConstraint=eastwest;whiteSpace=wrap;html=1;" vertex="1" parent="2MG4cEO34_QD30TGhG2z-24">
          <mxGeometry y="88" width="160" height="62" as="geometry" />
        </mxCell>
        <mxCell id="2MG4cEO34_QD30TGhG2z-28" value="Order" style="swimlane;fontStyle=1;align=center;verticalAlign=top;childLayout=stackLayout;horizontal=1;startSize=26;horizontalStack=0;resizeParent=1;resizeParentMax=0;resizeLast=0;collapsible=1;marginBottom=0;whiteSpace=wrap;html=1;" vertex="1" parent="WIyWlLk6GJQsqaUBKTNV-1">
          <mxGeometry x="330" y="260" width="200" height="200" as="geometry" />
        </mxCell>
        <mxCell id="2MG4cEO34_QD30TGhG2z-29" value="orderID&lt;div&gt;orderStatus: string&lt;/div&gt;&lt;div&gt;cutomer: Customer&lt;/div&gt;&lt;div&gt;seller: Seller&lt;/div&gt;&lt;div&gt;deliveryPartner: DeliveryPartner&lt;/div&gt;&lt;div&gt;paymentStatus: string&lt;/div&gt;" style="text;strokeColor=none;fillColor=none;align=left;verticalAlign=top;spacingLeft=4;spacingRight=4;overflow=hidden;rotatable=0;points=[[0,0.5],[1,0.5]];portConstraint=eastwest;whiteSpace=wrap;html=1;" vertex="1" parent="2MG4cEO34_QD30TGhG2z-28">
          <mxGeometry y="26" width="200" height="104" as="geometry" />
        </mxCell>
        <mxCell id="2MG4cEO34_QD30TGhG2z-30" value="" style="line;strokeWidth=1;fillColor=none;align=left;verticalAlign=middle;spacingTop=-1;spacingLeft=3;spacingRight=3;rotatable=0;labelPosition=right;points=[];portConstraint=eastwest;strokeColor=inherit;" vertex="1" parent="2MG4cEO34_QD30TGhG2z-28">
          <mxGeometry y="130" width="200" height="8" as="geometry" />
        </mxCell>
        <mxCell id="2MG4cEO34_QD30TGhG2z-31" value="processOrder()&lt;div&gt;updateSTatus()&lt;/div&gt;&lt;div&gt;trackOrder()&lt;/div&gt;" style="text;strokeColor=none;fillColor=none;align=left;verticalAlign=top;spacingLeft=4;spacingRight=4;overflow=hidden;rotatable=0;points=[[0,0.5],[1,0.5]];portConstraint=eastwest;whiteSpace=wrap;html=1;" vertex="1" parent="2MG4cEO34_QD30TGhG2z-28">
          <mxGeometry y="138" width="200" height="62" as="geometry" />
        </mxCell>
        <mxCell id="2MG4cEO34_QD30TGhG2z-37" value="owns" style="endArrow=diamondThin;endFill=1;endSize=24;html=1;rounded=0;entryX=1;entryY=0.5;entryDx=0;entryDy=0;exitX=-0.008;exitY=0.648;exitDx=0;exitDy=0;exitPerimeter=0;" edge="1" parent="WIyWlLk6GJQsqaUBKTNV-1" source="2MG4cEO34_QD30TGhG2z-25" target="2MG4cEO34_QD30TGhG2z-1">
          <mxGeometry width="160" relative="1" as="geometry">
            <mxPoint x="290" y="430" as="sourcePoint" />
            <mxPoint x="450" y="430" as="targetPoint" />
          </mxGeometry>
        </mxCell>
        <mxCell id="2MG4cEO34_QD30TGhG2z-38" value="" style="endArrow=none;html=1;rounded=0;endFill=0;exitX=1;exitY=0.5;exitDx=0;exitDy=0;entryX=-0.01;entryY=0.42;entryDx=0;entryDy=0;entryPerimeter=0;" edge="1" parent="WIyWlLk6GJQsqaUBKTNV-1" source="2MG4cEO34_QD30TGhG2z-3" target="2MG4cEO34_QD30TGhG2z-29">
          <mxGeometry relative="1" as="geometry">
            <mxPoint x="115" y="410" as="sourcePoint" />
            <mxPoint x="310" y="360" as="targetPoint" />
          </mxGeometry>
        </mxCell>
        <mxCell id="2MG4cEO34_QD30TGhG2z-40" value="1" style="edgeLabel;resizable=0;html=1;;align=left;verticalAlign=bottom;" connectable="0" vertex="1" parent="2MG4cEO34_QD30TGhG2z-38">
          <mxGeometry x="-1" relative="1" as="geometry" />
        </mxCell>
        <mxCell id="2MG4cEO34_QD30TGhG2z-41" value="0..*" style="edgeLabel;resizable=0;html=1;;align=right;verticalAlign=bottom;" connectable="0" vertex="1" parent="2MG4cEO34_QD30TGhG2z-38">
          <mxGeometry x="1" relative="1" as="geometry">
            <mxPoint x="-8" y="-10" as="offset" />
          </mxGeometry>
        </mxCell>
      </root>
    </mxGraphModel>
  </diagram>
</mxfile>
